<svg 
 xmlns="http://www.w3.org/2000/svg"
 xmlns:xlink="http://www.w3.org/1999/xlink"
 width="92px" height="94px">
<path fill-rule="evenodd"  fill="rgb(22, 20, 24)"
 d="M50.555,50.999 L40.444,50.999 C39.646,50.999 39.000,50.328 39.000,49.499 L39.007,38.999 C39.007,38.170 39.646,37.499 40.444,37.499 L41.166,37.499 L41.166,35.999 L42.611,35.999 L42.611,37.499 L48.389,37.499 L48.389,35.999 L49.833,35.999 L49.833,37.499 L50.555,37.499 C51.353,37.499 52.000,38.170 52.000,38.999 L52.000,49.499 C52.000,50.328 51.353,50.999 50.555,50.999 ZM50.555,41.249 L40.444,41.249 L40.444,49.499 L50.555,49.499 L50.555,41.249 ZM44.481,46.409 L48.006,42.749 L48.771,43.544 L44.481,47.999 L42.185,45.614 L42.950,44.819 L44.481,46.409 Z"/>
</svg>