<svg 
 xmlns="http://www.w3.org/2000/svg"
 xmlns:xlink="http://www.w3.org/1999/xlink"
 width="94px" height="95px">
<path fill-rule="evenodd"  fill="rgb(22, 20, 24)"
 d="M52.949,39.087 C52.806,39.087 52.661,39.039 52.543,38.942 L50.817,37.526 C50.547,37.305 50.511,36.911 50.736,36.646 C50.961,36.381 51.361,36.345 51.631,36.566 L53.357,37.982 C53.626,38.203 53.663,38.597 53.438,38.862 C53.312,39.010 53.131,39.087 52.949,39.087 ZM46.500,45.874 C45.799,45.874 45.229,45.314 45.229,44.624 C45.229,43.935 45.799,43.374 46.500,43.374 C46.567,43.374 46.634,43.380 46.698,43.390 L48.702,40.954 C48.923,40.686 49.323,40.645 49.596,40.862 C49.869,41.079 49.911,41.472 49.690,41.741 L47.686,44.176 C47.741,44.315 47.771,44.466 47.771,44.624 C47.771,45.314 47.201,45.874 46.500,45.874 ZM54.000,44.624 C54.000,45.866 53.680,47.094 53.074,48.176 C52.905,48.478 52.519,48.588 52.211,48.422 C51.904,48.255 51.792,47.875 51.961,47.573 C52.463,46.676 52.729,45.656 52.729,44.624 C52.729,41.247 49.934,38.499 46.500,38.499 C43.065,38.499 40.271,41.247 40.271,44.624 C40.271,48.001 43.065,50.749 46.500,50.749 C47.839,50.749 49.116,50.338 50.191,49.558 C50.473,49.354 50.871,49.413 51.079,49.691 C51.288,49.969 51.227,50.360 50.945,50.565 C49.650,51.503 48.113,51.999 46.500,51.999 C44.497,51.999 42.613,51.232 41.197,49.839 C39.780,48.446 39.000,46.594 39.000,44.624 C39.000,42.654 39.780,40.802 41.197,39.409 C42.462,38.164 44.101,37.420 45.864,37.276 L45.864,36.624 C45.864,36.279 46.149,35.999 46.500,35.999 C46.851,35.999 47.135,36.279 47.135,36.624 L47.135,37.276 C48.899,37.420 50.537,38.164 51.803,39.409 C53.220,40.802 54.000,42.654 54.000,44.624 ZM40.457,38.942 C40.338,39.039 40.194,39.087 40.050,39.087 C39.868,39.087 39.688,39.010 39.562,38.862 C39.337,38.597 39.373,38.203 39.643,37.982 L41.369,36.566 C41.638,36.345 42.039,36.381 42.264,36.646 C42.489,36.911 42.452,37.305 42.183,37.526 L40.457,38.942 Z"/>
</svg>